<?xml version="1.0" encoding="UTF-8"?>
<svg id="Layer_2" data-name="Layer 2" xmlns="http://www.w3.org/2000/svg" viewBox="0 0 881.5 950.8">
  <defs>
    <style>
      .cls-1 {
        fill: #5cd5ff;
      }
    </style>
  </defs>
  <g id="Objects">
    <g>
      <path class="cls-1" d="M311.87,896.08c-1.97,0-3.97-.3-5.94-.93-43.88-14.09-85.16-34.95-122.69-62.01-37.05-26.71-69.62-58.87-96.82-95.57-27.52-37.14-48.91-78.1-63.57-121.75C7.69,570.69,0,523.44,0,475.4c0-111.35,41.63-217.65,117.22-299.32C192.39,94.87,294.3,45.18,404.18,36.15c10.7-.88,20.08,7.08,20.96,17.77.88,10.7-7.08,20.08-17.77,20.96-100.17,8.23-193.08,53.55-261.63,127.6-68.92,74.46-106.88,171.39-106.88,272.92,0,43.83,7.01,86.91,20.82,128.05,13.36,39.78,32.86,77.12,57.95,110.98,24.81,33.48,54.53,62.81,88.32,87.18,34.21,24.67,71.84,43.69,111.83,56.53,10.22,3.28,15.84,14.22,12.56,24.44-2.65,8.24-10.28,13.5-18.5,13.5Z"/>
      <path class="cls-1" d="M497.07,912.42c-9.59,0-17.93-7.1-19.23-16.86-1.42-10.64,6.05-20.41,16.68-21.83,95.62-12.78,183.6-59.88,247.75-132.62,31.69-35.94,56.46-76.72,73.61-121.21,17.75-46.05,26.75-94.67,26.75-144.49,0-85.57-26.52-167.25-76.7-236.21-24.17-33.21-53.15-62.45-86.15-86.9-33.37-24.73-70.14-44.04-109.29-57.38-10.16-3.46-15.58-14.5-12.12-24.66,3.46-10.16,14.5-15.59,24.66-12.12,42.95,14.64,83.29,35.82,119.89,62.94,36.17,26.81,67.95,58.86,94.44,95.26,26.82,36.86,47.65,77.4,61.92,120.51,14.75,44.57,22.23,91.19,22.23,138.56,0,54.62-9.88,107.94-29.35,158.47-18.81,48.81-45.97,93.54-80.72,132.94-70.34,79.76-166.85,131.41-271.75,145.43-.87.12-1.74.17-2.6.17Z"/>
      <path class="cls-1" d="M359.5,933.43l71.47-358.33-244.44,30.23c-11.78,1.46-20.21-11.1-14.41-21.45L495.17,7.46c8.06-14.39,30.06-6.26,26.83,9.91l-71.48,358.33,244.44-30.23c11.78-1.46,20.21,11.1,14.41,21.45l-323.04,576.43c-8.06,14.39-30.06,6.26-26.83-9.91Z"/>
    </g>
  </g>
</svg>