<?xml version="1.0" encoding="UTF-8"?>
<svg id="Layer_2" data-name="Layer 2" xmlns="http://www.w3.org/2000/svg" viewBox="0 0 881.51 876.34">
  <defs>
    <style>
      .cls-1 {
        fill: #5cd5ff;
      }
    </style>
  </defs>
  <g id="Layer_1-2" data-name="Layer 1">
    <g id="Objects">
      <g>
        <path class="cls-1" d="M311.87,860c-1.97,0-3.97-.3-5.94-.93-43.88-14.09-85.16-34.95-122.69-62.01-37.05-26.71-69.62-58.87-96.82-95.57-27.52-37.14-48.91-78.1-63.57-121.75C7.69,534.61,0,487.36,0,439.32c0-111.35,41.63-217.65,117.22-299.32C192.39,58.79,294.3,9.1,404.18.07c10.7-.88,20.08,7.08,20.96,17.77.88,10.7-7.08,20.08-17.77,20.96-100.17,8.23-193.08,53.55-261.63,127.6-68.92,74.46-106.88,171.39-106.88,272.92,0,43.83,7.01,86.91,20.82,128.05,13.36,39.78,32.86,77.12,57.95,110.98,24.81,33.48,54.53,62.81,88.32,87.18,34.21,24.67,71.84,43.69,111.83,56.53,10.22,3.28,15.84,14.22,12.56,24.44-2.65,8.24-10.28,13.5-18.5,13.5h.03Z"/>
        <path class="cls-1" d="M497.07,876.34c-9.59,0-17.93-7.1-19.23-16.86-1.42-10.64,6.05-20.41,16.68-21.83,95.62-12.78,183.6-59.88,247.75-132.62,31.69-35.94,56.46-76.72,73.61-121.21,17.75-46.05,26.75-94.67,26.75-144.49,0-85.57-26.52-167.25-76.7-236.21-24.17-33.21-53.15-62.45-86.15-86.9-33.37-24.73-70.14-44.04-109.29-57.38-10.16-3.46-15.58-14.5-12.12-24.66s14.5-15.59,24.66-12.12c42.95,14.64,83.29,35.82,119.89,62.94,36.17,26.81,67.95,58.86,94.44,95.26,26.82,36.86,47.65,77.4,61.92,120.51,14.75,44.57,22.23,91.19,22.23,138.56,0,54.62-9.88,107.94-29.35,158.47-18.81,48.81-45.97,93.54-80.72,132.94-70.34,79.76-166.85,131.41-271.75,145.43-.87.12-1.74.17-2.6.17h-.02Z"/>
      </g>
    </g>
    <g id="IckD2Z.tif">
      <g>
        <path class="cls-1" d="M439,103.4c2.09,15.3-7.67,47.75,14.56,50.81,24.98,3.44,57.57-9.73,73.68,16.14,14.85,23.85-1.73,50.97-28.82,52.86-44.93,3.13-93.49-2.42-138.8-.07-19.03,2.63-18.98,30.8.02,32.96,22.6,2.57,54.97-7.65,71.34,12.5,2.9,3.57,8.01,13.58,8.01,17.94v20.46h16.97v34.93h106.28c53.14,5.33,104.35,49.83,118.78,100.8,1.86,6.59,2.81,13.35,4.49,19.96-.67,10,.91,21.09,0,30.94-7.44,80.71-89.97,135.69-167.86,117.46-35.18-8.23-53.71-32.87-93.12-30.62-28.41,1.63-42.4,17.02-66.86,25.96-97.86,35.77-197.07-46.55-182-149.07,8.29-56.43,65.77-111.63,123.06-115.47l105.34.04v-34.93h16.97v-20.46c0-.44-3.67-6.65-4.49-7.49-1.78-1.83-6.67-4.31-9.22-4.75-23.53-4-56.01,8.92-72.95-13.88-16-21.54-3.26-50.41,22.54-54.96,45.67-3.52,96.43,3.8,141.51-.22,21.7-1.94,21.48-31.21,1-33.02-22.12-1.95-53.54,6.79-69.91-11.93-13.33-15.23-7.04-38.36-8.47-56.9h17.96ZM438,324.96h-15.97v16.97h15.97v-16.97ZM308.05,359.19c-29.31,1.79-54.06,12.42-75.66,32.13-86.41,78.85-23.76,214.31,91.21,204.99,41.54-3.37,62.7-34.59,108.96-33.84,37.16.6,51.9,20.71,83.08,29.69,84.72,24.4,166.02-47.84,150.63-134.66-8.27-46.64-55.18-91.33-102.13-97.48-83.84,1.48-172.63-5.92-256.08-.83Z"/>
        <path class="cls-1" d="M337.2,451.72h33.43c3.86,0,8.03,4.38,8.51,8.46.82,7.09.98,30.11-.08,36.89-.35,2.24-3.35,6.55-5.43,6.55h-36.43v34.43c0,3.86-4.38,8.03-8.46,8.51-7.09.82-30.11.98-36.89-.08-2.24-.35-6.55-3.35-6.55-5.43v-35.93c0-.11-1.39-1.5-1.5-1.5h-35.93c-2.08,0-5.08-4.31-5.43-6.55-1.06-6.78-.9-29.8-.08-36.89.47-4.09,4.64-8.46,8.51-8.46h34.43v-36.43c0-2.08,4.31-5.08,6.55-5.43,6.78-1.06,29.8-.9,36.89-.08,4.09.47,8.46,4.64,8.46,8.51v33.43ZM319.24,427.76h-16.97v36.43c0,1.17-4.31,5.49-5.49,5.49h-36.43v16.97h36.43c1.17,0,5.49,4.32,5.49,5.49v36.43h16.97v-36.43c0-1.17,4.32-5.49,5.49-5.49h36.43v-16.97h-36.43c-1.17,0-5.49-4.32-5.49-5.49v-36.43Z"/>
        <path class="cls-1" d="M573.39,402.17c31.2,30.74-12.75,79.82-46.57,51.06-36.03-30.64,13.61-83.52,46.57-51.06ZM544.52,411.02c-15.66,3.23-16.26,29.55,2.01,32.48,25.42,4.06,25.94-38.23-2.01-32.48Z"/>
        <path class="cls-1" d="M603.44,443.99c47.28-6.4,53.86,63.68,9.62,68.5-45.5,4.95-52.3-62.71-9.62-68.5ZM604.41,461.93c-15.85,3.28-16.1,30.33,1.86,32.61,26.18,3.33,25.08-38.19-1.86-32.61Z"/>
        <path class="cls-1" d="M484.7,444.01c47.86-6.02,52.76,65.29,7.69,68.56-44.7,3.25-50.41-63.19-7.69-68.56ZM485.64,461.93c-19.16,3.56-15.86,36.42,7.52,32.46,19.8-3.36,16.16-36.86-7.52-32.46Z"/>
        <path class="cls-1" d="M545.57,494.92c45.34-4.78,51.45,63.54,8.6,68.47-46.8,5.39-53.73-63.72-8.6-68.47ZM545.52,512.83c-4.25.78-8.75,4.47-10.73,8.22-8.24,15.62,9.31,31.66,23.91,21.91,14.73-9.83,5.26-33.54-13.18-30.14Z"/>
      </g>
    </g>
  </g>
</svg>