<?xml version="1.0" encoding="UTF-8"?>
<svg id="Layer_2" data-name="Layer 2" xmlns="http://www.w3.org/2000/svg" viewBox="0 0 1689.82 506.57">
  <defs>
    <style>
      .cls-1 {
        fill: #fff;
      }
    </style>
  </defs>
  <g id="Layer_3" data-name="Layer 3">
    <g>
      <path class="cls-1" d="M414.45,417.83c-113.41,116.94-292.9,96.28-377.85-41.74C-78.59,188.95,96.09-53.03,310.41,11.12c174.26,52.16,229.85,276.98,104.04,406.71ZM217.34,50.96C68.42,66.79-1.15,259.77,93.71,373.29c87.76,105.02,249.28,93.03,315.15-28.02,76.5-140.61-29.89-311.48-191.51-294.3Z"/>
      <path class="cls-1" d="M704.58,0l91.15,153.22V0h52.37v233.7c0,.68,3.44,2.15-.97,4.85h-54.3c-1.03,0-3.98-2.28-4.92-3.39-28.77-43.92-53.26-92.7-82.53-136.08-2.35-3.48-4.46-8.13-8.54-9.86,1.06,42.27-1.45,84.84-.1,127.11.23,7.28,5.54,16.33-.89,22.22h-51.4V0h60.12Z"/>
      <path class="cls-1" d="M877.19,0h103.76c12.09,0,38.99,11.43,49.71,18.17,74.24,46.67,67.2,181.07-18.12,211.23-23.64,8.36-102.58,12.3-128.66,9.24-2.82-.33-4.99-.24-6.69-3.01V0ZM933.43,190.07h43.64c2.43,0,15.21-5.23,18.3-6.92,40.41-22.08,41.83-99.49,4.66-124.65-4.4-2.98-20.25-10.02-24.89-10.02h-43.64c-.72,2.09,1.94,4.26,1.94,4.85v136.73Z"/>
      <path class="cls-1" d="M1557.94,283.16l81.46,137.7v-137.7h50.43v223.04h-53.33l-85.37-139.61c-7.76-5.02-.94,2.12-.94,2.88v136.73h-50.43v-223.04h58.18Z"/>
      <polygon class="cls-1" points="609.54 283.16 609.54 370.44 692.94 370.44 692.94 283.16 743.37 283.16 743.37 506.2 692.94 506.2 692.94 415.04 609.54 415.04 609.54 503.29 606.64 506.2 557.18 506.2 557.18 283.16 609.54 283.16"/>
      <polygon class="cls-1" points="1340.72 0 1340.72 48.49 1241.81 48.49 1241.81 95.03 1325.2 95.03 1325.2 141.58 1241.81 141.58 1241.81 190.07 1340.72 190.07 1340.72 236.61 1187.5 238.55 1187.5 0 1340.72 0"/>
      <path class="cls-1" d="M1476.48,283.16v45.58l-2.91,2.91h-87.28c-.68,0-2.15-3.44-4.85.97v39.76h77.58v44.61l-74.7-1.88c-4.75,2.96-.94,4.07-.94,4.79v36.85c0,.68-3.44,2.15.97,4.85h92.12v44.61h-145.46v-223.04h145.46Z"/>
      <path class="cls-1" d="M1137.08,504.26h-51.4l-14.45-43.64-79.7-.08-13.5,43.72h-48.49l70.76-219.19c3.37-4.05,50.63-1.61,59.22-.97,27.3,72.59,54.71,145.85,77.54,220.16ZM1005.19,416.98h52.37l-26.2-77.59-26.16,77.59Z"/>
      <path class="cls-1" d="M914.04,283.16c.72,2.09-1.94,4.26-1.94,4.85v43.64h-89.21v40.73h76.61c1.98,1.45,2.1,1.7,2.11,3.96.04,11.6-3.32,24.83,0,36.69l-2.11,3.96h-73.7c-.59,0-1.49-2.46-2.91-1.94v46.55h91.15v44.61h-141.58v-223.04h141.58Z"/>
      <path class="cls-1" d="M1154.53,283.16l55.27,170.69,53.34-170.69h50.43l-73.62,222.15c-8.98.51-59.75,3.08-63.15-1.02l-74.64-221.13h52.37Z"/>
      <polygon class="cls-1" points="1158.41 0 1158.41 238.55 1105.07 238.55 1102.17 235.64 1102.17 0 1158.41 0"/>
      <polygon class="cls-1" points="613.42 0 613.42 238.55 560.09 238.55 557.18 0 613.42 0"/>
      <path class="cls-1" d="M211.96,196.85c.04-.47,4.17-3.34.98-4.84-19.32,22.24-44.87,40.09-64.11,61.99-1.48,1.68-2.86,3.51-2.85,5.88-6.21-3.25-41.15-36.06-40.55-39.49L240.08,83.43l138.53,135.02-39.35,39.35-69.12-63.84-.27,214.02-1.55,2.33-56.37-1.09v-212.37Z"/>
    </g>
  </g>
</svg>