<?xml version="1.0" encoding="UTF-8"?>
<svg id="Layer_2" data-name="Layer 2" xmlns="http://www.w3.org/2000/svg" viewBox="0 0 881.5 876.34">
  <defs>
    <style>
      .cls-1 {
        fill: #5cd5ff;
      }
    </style>
  </defs>
  <g id="Objects">
    <g>
      <g>
        <path class="cls-1" d="M627.14,423.16h-148.07v249.45h148.07c10.82,0,19.59-8.77,19.59-19.59v-210.27c0-10.82-8.77-19.59-19.59-19.59Z"/>
        <path class="cls-1" d="M237.94,442.75v210.27c0,10.82,8.77,19.59,19.59,19.59h148.07v-249.45h-148.07c-10.82,0-19.59,8.77-19.59,19.59Z"/>
        <path class="cls-1" d="M211.16,318.68v61.38c0,10.82,8.77,19.59,19.59,19.59h174.85l.07-100.57h-174.92c-10.82,0-19.59,8.77-19.59,19.59Z"/>
        <path class="cls-1" d="M653.91,299.09h-175.26l.41,100.57h174.85c10.82,0,19.59-8.77,19.59-19.59v-61.38c0-10.82-8.77-19.59-19.59-19.59Z"/>
        <path class="cls-1" d="M292.43,276.98c2.27,1.3,5.86,3.32,16.29,3.32h264.63c11.47,0,16.01-2.19,18.44-3.63,17.52-10.34,28.51-32.03,28.51-59.7,0-20.58-6.5-41.1-17.84-56.3-13.92-18.67-34.55-28.95-58.08-28.95-1.93,0-3.9.07-5.91.21-61.76,4.26-86.84,62.89-96.64,100.68-9.8-37.78-34.88-96.42-96.64-100.68-2.01-.14-3.97-.21-5.91-.21-23.53,0-44.16,10.28-58.08,28.95-11.34,15.2-17.84,35.72-17.84,56.3,0,27.96,11.22,49.81,29.04,60.01ZM540.9,167.11c1.18-.08,2.34-.13,3.48-.13,12.48,0,22.51,4.97,29.81,14.77,6.89,9.23,10.84,22.07,10.84,35.22,0,10.78-3.75,31.16-17.92,31.16h-92.71c6.37-28.31,23.63-78.06,66.5-81.02ZM309.49,181.75c7.31-9.8,17.34-14.77,29.81-14.77,1.14,0,2.3.04,3.48.13,42.87,2.96,60.13,52.7,66.5,81.02h-92.71c-14.17,0-17.92-20.38-17.92-31.16,0-13.15,3.95-25.98,10.84-35.22Z"/>
      </g>
      <g>
        <path class="cls-1" d="M311.87,860c-1.97,0-3.97-.3-5.94-.93-43.88-14.09-85.16-34.95-122.69-62.01-37.05-26.71-69.62-58.87-96.82-95.57-27.52-37.14-48.91-78.1-63.57-121.75C7.69,534.61,0,487.36,0,439.32c0-111.35,41.63-217.65,117.22-299.32C192.39,58.79,294.3,9.1,404.18.07c10.7-.88,20.08,7.08,20.96,17.77.88,10.7-7.08,20.08-17.77,20.96-100.17,8.23-193.08,53.55-261.63,127.6-68.92,74.46-106.88,171.39-106.88,272.92,0,43.83,7.01,86.91,20.82,128.05,13.36,39.78,32.86,77.12,57.95,110.98,24.81,33.48,54.53,62.81,88.32,87.18,34.21,24.67,71.84,43.69,111.83,56.53,10.22,3.28,15.84,14.22,12.56,24.44-2.65,8.24-10.28,13.5-18.5,13.5Z"/>
        <path class="cls-1" d="M497.07,876.34c-9.59,0-17.93-7.1-19.23-16.86-1.42-10.64,6.05-20.41,16.68-21.83,95.62-12.78,183.6-59.88,247.75-132.62,31.69-35.94,56.46-76.72,73.61-121.21,17.75-46.05,26.75-94.67,26.75-144.49,0-85.57-26.52-167.25-76.7-236.21-24.17-33.21-53.15-62.45-86.15-86.9-33.37-24.73-70.14-44.04-109.29-57.38-10.16-3.46-15.58-14.5-12.12-24.66,3.46-10.16,14.5-15.59,24.66-12.12,42.95,14.64,83.29,35.82,119.89,62.94,36.17,26.81,67.95,58.86,94.44,95.26,26.82,36.86,47.65,77.4,61.92,120.51,14.75,44.57,22.23,91.19,22.23,138.56,0,54.62-9.88,107.94-29.35,158.47-18.81,48.81-45.97,93.54-80.72,132.94-70.34,79.76-166.85,131.41-271.75,145.43-.87.12-1.74.17-2.6.17Z"/>
      </g>
    </g>
  </g>
</svg>